<svg xmlns="http://www.w3.org/2000/svg" xmlns:xlink="http://www.w3.org/1999/xlink" width="500" zoomAndPan="magnify" viewBox="0 0 375 374.999991" height="500" preserveAspectRatio="xMidYMid meet" version="1.0"><path fill="#e89105" d="M 290.269531 538.703125 L 237.34375 456.703125 L 267.226562 360.460938 L 205.0625 417.40625 L 201.28125 516.011719 L 161.515625 414.414062 L 219.488281 309.238281 L 136.214844 384.851562 L 134.75 461.796875 L 53.179688 422.785156 L 120.851562 337.207031 L 104.046875 318.382812 L 80.488281 357.167969 L 73.507812 334.460938 L 67.46875 354.382812 L 58.734375 322.46875 L 58.734375 339.710938 L 37.300781 305.984375 L 44.960938 262.804688 L 28.960938 244.910156 L 27.296875 214.199219 L 5.378906 178.617188 L 86.867188 115.703125 L 86.867188 103.9375 L 123.523438 73.703125 L 85.753906 29.925781 L 145.378906 29.972656 L 145.378906 34.523438 L 95.707031 34.492188 L 130.015625 74.25 L 91.417969 106.085938 L 91.417969 117.941406 L 11.402344 179.722656 L 31.785156 212.796875 L 33.417969 243.066406 L 49.832031 261.421875 L 42.097656 305.03125 L 54.175781 324.046875 L 54.175781 288.558594 L 67.691406 337.929688 L 73.46875 318.851562 L 81.863281 346.132812 L 103.347656 310.765625 L 126.800781 337.03125 L 60.285156 421.140625 L 130.328125 454.636719 L 131.703125 382.804688 L 132.425781 382.136719 L 236.699219 287.460938 L 166.535156 414.742188 L 197.566406 494.019531 L 200.582031 415.332031 L 276.582031 345.71875 L 242.324219 456.019531 L 287.363281 525.800781 L 322.160156 260.472656 L 337.691406 454.039062 L 410.707031 338.230469 L 397.59375 443.757812 L 461.953125 383.703125 L 448.976562 239.867188 L 512.683594 295.210938 L 439.589844 148.207031 L 524.445312 219.125 L 453.113281 113.777344 L 502.132812 97.613281 L 400.832031 39.140625 L 403.109375 35.199219 L 513.21875 98.75 L 460.269531 116.207031 L 546.382812 243.398438 L 453.34375 165.640625 L 526.917969 313.613281 L 454.523438 250.726562 L 466.6875 385.511719 L 391.523438 455.648438 L 403.671875 357.933594 L 334.246094 468.042969 L 321.070312 303.828125 Z M 290.269531 538.703125 " fill-opacity="1" fill-rule="nonzero"/><path fill="#fcc300" d="M 237.542969 130.703125 L 272.582031 145.660156 L 242.65625 108.804688 L 281.707031 109.898438 L 224.046875 74.132812 L 247.765625 71.945312 L 213.457031 59.898438 L 232.15625 23.320312 L 205.316406 36.433594 L 190.75 29.152344 L 190.542969 29.042969 L 190.597656 29.296875 L 197.402344 60.636719 L 174.9375 44.390625 L 100.695312 106.976562 L 100.695312 121.578125 L 26.246094 180.695312 L 77.503906 179.578125 L 47.316406 204.230469 L 37.839844 211.976562 L 63.628906 246.078125 L 86.890625 254.203125 L 109.164062 261.992188 L 147.371094 239.882812 L 136.582031 224.851562 L 101.207031 219.011719 L 133.929688 217.246094 L 128.066406 206.472656 L 89.382812 199.304688 L 128.066406 197.847656 L 114.199219 177.042969 L 120.398438 148.953125 L 124.414062 174.496094 L 136.09375 187.265625 L 212 176.316406 L 154.339844 202.957031 L 153.242188 250.035156 L 198.863281 228.871094 L 189.738281 282.148438 L 236.054688 223.800781 L 236.085938 223.761719 L 236.085938 223.722656 L 238.273438 159.164062 L 288.820312 191.648438 Z M 164.613281 136.027344 L 139.851562 136.027344 L 153.832031 125.832031 L 123.828125 133.804688 L 148.007812 109.226562 L 166.21875 111.84375 L 190.542969 115.339844 Z M 164.613281 136.027344 " fill-opacity="1" fill-rule="nonzero"/><path fill="#fcc300" d="M 119.347656 278.113281 L 114.246094 288.449219 L 73.320312 292.0625 L 55.742188 264.882812 L 62.441406 251.855469 C 62.449219 251.847656 62.449219 251.839844 62.449219 251.839844 L 111.238281 274.367188 Z M 119.347656 278.113281 " fill-opacity="1" fill-rule="nonzero"/><path fill="#e89105" d="M 326.8125 70.902344 L 312.179688 38.527344 L 300.8125 32.527344 L 276.519531 77.792969 L 245.855469 49.691406 L 300.8125 -0.738281 L 324.960938 25.015625 Z M 326.8125 70.902344 " fill-opacity="1" fill-rule="nonzero"/><path fill="#e89105" d="M 371.121094 155.558594 C 371.121094 156.1875 371.058594 156.8125 370.933594 157.429688 C 370.8125 158.046875 370.628906 158.644531 370.390625 159.226562 C 370.148438 159.808594 369.855469 160.359375 369.503906 160.882812 C 369.15625 161.40625 368.757812 161.890625 368.3125 162.335938 C 367.867188 162.78125 367.382812 163.179688 366.859375 163.527344 C 366.335938 163.878906 365.785156 164.171875 365.203125 164.414062 C 364.621094 164.652344 364.023438 164.835938 363.40625 164.957031 C 362.789062 165.082031 362.164062 165.144531 361.535156 165.144531 C 360.90625 165.144531 360.28125 165.082031 359.664062 164.957031 C 359.046875 164.835938 358.449219 164.652344 357.867188 164.414062 C 357.285156 164.171875 356.734375 163.878906 356.210938 163.527344 C 355.6875 163.179688 355.203125 162.78125 354.757812 162.335938 C 354.3125 161.890625 353.914062 161.40625 353.566406 160.882812 C 353.214844 160.359375 352.921875 159.808594 352.679688 159.226562 C 352.441406 158.644531 352.257812 158.046875 352.136719 157.429688 C 352.011719 156.8125 351.949219 156.1875 351.949219 155.558594 C 351.949219 154.929688 352.011719 154.304688 352.136719 153.6875 C 352.257812 153.070312 352.441406 152.472656 352.679688 151.890625 C 352.921875 151.308594 353.214844 150.757812 353.566406 150.234375 C 353.914062 149.710938 354.3125 149.226562 354.757812 148.78125 C 355.203125 148.335938 355.6875 147.9375 356.210938 147.589844 C 356.734375 147.238281 357.285156 146.945312 357.867188 146.703125 C 358.449219 146.460938 359.046875 146.28125 359.664062 146.15625 C 360.28125 146.035156 360.90625 145.972656 361.535156 145.972656 C 362.164062 145.972656 362.789062 146.035156 363.40625 146.15625 C 364.023438 146.28125 364.621094 146.460938 365.203125 146.703125 C 365.785156 146.945312 366.335938 147.238281 366.859375 147.589844 C 367.382812 147.9375 367.867188 148.335938 368.3125 148.78125 C 368.757812 149.226562 369.15625 149.710938 369.503906 150.234375 C 369.855469 150.757812 370.148438 151.308594 370.390625 151.890625 C 370.628906 152.472656 370.8125 153.070312 370.933594 153.6875 C 371.058594 154.304688 371.121094 154.929688 371.121094 155.558594 Z M 371.121094 155.558594 " fill-opacity="1" fill-rule="nonzero"/><path fill="#e89105" d="M 289.140625 108.527344 C 289.140625 109.15625 289.082031 109.78125 288.957031 110.398438 C 288.835938 111.015625 288.652344 111.613281 288.414062 112.195312 C 288.171875 112.777344 287.875 113.328125 287.527344 113.851562 C 287.175781 114.375 286.78125 114.859375 286.335938 115.304688 C 285.890625 115.75 285.40625 116.144531 284.882812 116.496094 C 284.359375 116.84375 283.808594 117.140625 283.226562 117.382812 C 282.644531 117.621094 282.046875 117.804688 281.425781 117.925781 C 280.808594 118.050781 280.1875 118.109375 279.558594 118.109375 C 278.929688 118.109375 278.304688 118.050781 277.6875 117.925781 C 277.070312 117.804688 276.472656 117.621094 275.890625 117.382812 C 275.308594 117.140625 274.757812 116.84375 274.234375 116.496094 C 273.710938 116.144531 273.226562 115.75 272.78125 115.304688 C 272.335938 114.859375 271.9375 114.375 271.589844 113.851562 C 271.238281 113.328125 270.945312 112.777344 270.703125 112.195312 C 270.460938 111.613281 270.28125 111.015625 270.15625 110.398438 C 270.035156 109.78125 269.972656 109.15625 269.972656 108.527344 C 269.972656 107.898438 270.035156 107.273438 270.15625 106.65625 C 270.28125 106.039062 270.460938 105.441406 270.703125 104.859375 C 270.945312 104.277344 271.238281 103.726562 271.589844 103.203125 C 271.9375 102.679688 272.335938 102.195312 272.78125 101.75 C 273.226562 101.304688 273.710938 100.90625 274.234375 100.558594 C 274.757812 100.207031 275.308594 99.914062 275.890625 99.671875 C 276.472656 99.429688 277.070312 99.25 277.6875 99.125 C 278.304688 99.003906 278.929688 98.941406 279.558594 98.941406 C 280.1875 98.941406 280.808594 99.003906 281.425781 99.125 C 282.046875 99.25 282.644531 99.429688 283.226562 99.671875 C 283.808594 99.914062 284.359375 100.207031 284.882812 100.558594 C 285.40625 100.90625 285.890625 101.304688 286.335938 101.75 C 286.78125 102.195312 287.175781 102.679688 287.527344 103.203125 C 287.875 103.726562 288.171875 104.277344 288.414062 104.859375 C 288.652344 105.441406 288.835938 106.039062 288.957031 106.65625 C 289.082031 107.273438 289.140625 107.898438 289.140625 108.527344 Z M 289.140625 108.527344 " fill-opacity="1" fill-rule="nonzero"/><path fill="#e89105" d="M 154.523438 32.25 C 154.523438 32.878906 154.460938 33.503906 154.339844 34.121094 C 154.21875 34.738281 154.035156 35.335938 153.792969 35.917969 C 153.554688 36.5 153.257812 37.050781 152.910156 37.574219 C 152.558594 38.097656 152.160156 38.582031 151.71875 39.027344 C 151.273438 39.472656 150.789062 39.871094 150.265625 40.21875 C 149.742188 40.570312 149.1875 40.863281 148.609375 41.105469 C 148.027344 41.347656 147.425781 41.527344 146.808594 41.652344 C 146.191406 41.773438 145.570312 41.835938 144.941406 41.835938 C 144.308594 41.835938 143.6875 41.773438 143.070312 41.652344 C 142.453125 41.527344 141.851562 41.347656 141.273438 41.105469 C 140.691406 40.863281 140.136719 40.570312 139.613281 40.21875 C 139.089844 39.871094 138.609375 39.472656 138.164062 39.027344 C 137.71875 38.582031 137.320312 38.097656 136.96875 37.574219 C 136.621094 37.050781 136.324219 36.5 136.085938 35.917969 C 135.84375 35.335938 135.664062 34.738281 135.539062 34.121094 C 135.417969 33.503906 135.355469 32.878906 135.355469 32.25 C 135.355469 31.621094 135.417969 31 135.539062 30.382812 C 135.664062 29.765625 135.84375 29.164062 136.085938 28.582031 C 136.324219 28 136.621094 27.449219 136.96875 26.925781 C 137.320312 26.402344 137.71875 25.917969 138.164062 25.472656 C 138.609375 25.027344 139.089844 24.632812 139.613281 24.28125 C 140.136719 23.933594 140.691406 23.636719 141.273438 23.394531 C 141.851562 23.15625 142.453125 22.972656 143.070312 22.851562 C 143.6875 22.726562 144.308594 22.667969 144.941406 22.667969 C 145.570312 22.667969 146.191406 22.726562 146.808594 22.851562 C 147.425781 22.972656 148.027344 23.15625 148.609375 23.394531 C 149.1875 23.636719 149.742188 23.933594 150.265625 24.28125 C 150.789062 24.632812 151.273438 25.027344 151.71875 25.472656 C 152.160156 25.917969 152.558594 26.402344 152.910156 26.925781 C 153.257812 27.449219 153.554688 28 153.792969 28.582031 C 154.035156 29.164062 154.21875 29.765625 154.339844 30.382812 C 154.460938 31 154.523438 31.621094 154.523438 32.25 Z M 154.523438 32.25 " fill-opacity="1" fill-rule="nonzero"/><path fill="#e89105" d="M 245.847656 222.28125 C 245.847656 222.910156 245.785156 223.53125 245.664062 224.148438 C 245.539062 224.765625 245.359375 225.367188 245.117188 225.949219 C 244.878906 226.53125 244.582031 227.082031 244.234375 227.605469 C 243.882812 228.128906 243.484375 228.613281 243.039062 229.058594 C 242.59375 229.503906 242.113281 229.898438 241.589844 230.25 C 241.066406 230.597656 240.511719 230.894531 239.929688 231.136719 C 239.351562 231.375 238.75 231.558594 238.132812 231.679688 C 237.515625 231.804688 236.894531 231.863281 236.261719 231.863281 C 235.632812 231.863281 235.011719 231.804688 234.394531 231.679688 C 233.777344 231.558594 233.175781 231.375 232.59375 231.136719 C 232.015625 230.894531 231.460938 230.597656 230.9375 230.25 C 230.414062 229.898438 229.929688 229.503906 229.484375 229.058594 C 229.042969 228.613281 228.644531 228.128906 228.292969 227.605469 C 227.945312 227.082031 227.648438 226.53125 227.410156 225.949219 C 227.167969 225.367188 226.984375 224.765625 226.863281 224.148438 C 226.742188 223.53125 226.679688 222.910156 226.679688 222.28125 C 226.679688 221.652344 226.742188 221.027344 226.863281 220.410156 C 226.984375 219.792969 227.167969 219.195312 227.410156 218.613281 C 227.648438 218.03125 227.945312 217.480469 228.292969 216.957031 C 228.644531 216.433594 229.042969 215.949219 229.484375 215.503906 C 229.929688 215.058594 230.414062 214.660156 230.9375 214.3125 C 231.460938 213.960938 232.015625 213.667969 232.59375 213.425781 C 233.175781 213.183594 233.777344 213.003906 234.394531 212.878906 C 235.011719 212.757812 235.632812 212.695312 236.261719 212.695312 C 236.894531 212.695312 237.515625 212.757812 238.132812 212.878906 C 238.75 213.003906 239.351562 213.183594 239.929688 213.425781 C 240.511719 213.667969 241.066406 213.960938 241.589844 214.3125 C 242.113281 214.660156 242.59375 215.058594 243.039062 215.503906 C 243.484375 215.949219 243.882812 216.433594 244.234375 216.957031 C 244.582031 217.480469 244.878906 218.03125 245.117188 218.613281 C 245.359375 219.195312 245.539062 219.792969 245.664062 220.410156 C 245.785156 221.027344 245.847656 221.652344 245.847656 222.28125 Z M 245.847656 222.28125 " fill-opacity="1" fill-rule="nonzero"/><path fill="#e89105" d="M 133.414062 337.125 C 133.414062 337.753906 133.351562 338.375 133.230469 338.992188 C 133.105469 339.609375 132.925781 340.210938 132.683594 340.792969 C 132.445312 341.371094 132.148438 341.925781 131.796875 342.449219 C 131.449219 342.972656 131.050781 343.457031 130.605469 343.902344 C 130.160156 344.347656 129.675781 344.742188 129.15625 345.09375 C 128.632812 345.441406 128.078125 345.738281 127.496094 345.976562 C 126.914062 346.21875 126.316406 346.402344 125.699219 346.523438 C 125.082031 346.648438 124.457031 346.707031 123.828125 346.707031 C 123.199219 346.707031 122.578125 346.648438 121.960938 346.523438 C 121.34375 346.402344 120.742188 346.21875 120.160156 345.976562 C 119.582031 345.738281 119.027344 345.441406 118.503906 345.09375 C 117.980469 344.742188 117.496094 344.347656 117.050781 343.902344 C 116.609375 343.457031 116.210938 342.972656 115.859375 342.449219 C 115.511719 341.925781 115.214844 341.371094 114.976562 340.792969 C 114.734375 340.210938 114.550781 339.609375 114.429688 338.992188 C 114.308594 338.375 114.246094 337.753906 114.246094 337.125 C 114.246094 336.496094 114.308594 335.871094 114.429688 335.253906 C 114.550781 334.636719 114.734375 334.039062 114.976562 333.457031 C 115.214844 332.875 115.511719 332.320312 115.859375 331.800781 C 116.210938 331.277344 116.609375 330.792969 117.050781 330.347656 C 117.496094 329.902344 117.980469 329.503906 118.503906 329.15625 C 119.027344 328.804688 119.582031 328.507812 120.160156 328.269531 C 120.742188 328.027344 121.34375 327.847656 121.960938 327.722656 C 122.578125 327.601562 123.199219 327.539062 123.828125 327.539062 C 124.457031 327.539062 125.082031 327.601562 125.699219 327.722656 C 126.316406 327.847656 126.914062 328.027344 127.496094 328.269531 C 128.078125 328.507812 128.632812 328.804688 129.15625 329.15625 C 129.675781 329.503906 130.160156 329.902344 130.605469 330.347656 C 131.050781 330.792969 131.449219 331.277344 131.796875 331.800781 C 132.148438 332.320312 132.445312 332.875 132.683594 333.457031 C 132.925781 334.039062 133.105469 334.636719 133.230469 335.253906 C 133.351562 335.871094 133.414062 336.496094 133.414062 337.125 Z M 133.414062 337.125 " fill-opacity="1" fill-rule="nonzero"/><path fill="#e89105" d="M 241.742188 293.039062 C 241.742188 293.667969 241.679688 294.292969 241.558594 294.910156 C 241.433594 295.527344 241.253906 296.125 241.011719 296.707031 C 240.773438 297.289062 240.476562 297.839844 240.128906 298.363281 C 239.777344 298.886719 239.378906 299.371094 238.933594 299.816406 C 238.488281 300.261719 238.007812 300.65625 237.484375 301.007812 C 236.960938 301.355469 236.40625 301.652344 235.824219 301.894531 C 235.246094 302.132812 234.644531 302.316406 234.027344 302.4375 C 233.410156 302.5625 232.789062 302.625 232.15625 302.625 C 231.527344 302.625 230.90625 302.5625 230.289062 302.4375 C 229.671875 302.316406 229.070312 302.132812 228.492188 301.894531 C 227.910156 301.652344 227.355469 301.355469 226.832031 301.007812 C 226.308594 300.65625 225.824219 300.261719 225.382812 299.816406 C 224.9375 299.371094 224.539062 298.886719 224.1875 298.363281 C 223.839844 297.839844 223.542969 297.289062 223.304688 296.707031 C 223.0625 296.125 222.878906 295.527344 222.757812 294.910156 C 222.636719 294.292969 222.574219 293.667969 222.574219 293.039062 C 222.574219 292.410156 222.636719 291.785156 222.757812 291.167969 C 222.878906 290.550781 223.0625 289.953125 223.304688 289.371094 C 223.542969 288.789062 223.839844 288.238281 224.1875 287.714844 C 224.539062 287.191406 224.9375 286.707031 225.382812 286.261719 C 225.824219 285.816406 226.308594 285.417969 226.832031 285.070312 C 227.355469 284.71875 227.910156 284.425781 228.492188 284.183594 C 229.070312 283.941406 229.671875 283.761719 230.289062 283.636719 C 230.90625 283.515625 231.527344 283.453125 232.15625 283.453125 C 232.789062 283.453125 233.410156 283.515625 234.027344 283.636719 C 234.644531 283.761719 235.246094 283.941406 235.824219 284.183594 C 236.40625 284.425781 236.960938 284.71875 237.484375 285.070312 C 238.007812 285.417969 238.488281 285.816406 238.933594 286.261719 C 239.378906 286.707031 239.777344 287.191406 240.128906 287.714844 C 240.476562 288.238281 240.773438 288.789062 241.011719 289.371094 C 241.253906 289.953125 241.433594 290.550781 241.558594 291.167969 C 241.679688 291.785156 241.742188 292.410156 241.742188 293.039062 Z M 241.742188 293.039062 " fill-opacity="1" fill-rule="nonzero"/><path fill="#e89105" d="M 334.847656 271.953125 C 334.847656 272.792969 334.765625 273.628906 334.601562 274.453125 C 334.433594 275.28125 334.191406 276.082031 333.871094 276.863281 C 333.546875 277.640625 333.152344 278.378906 332.683594 279.078125 C 332.214844 279.78125 331.683594 280.429688 331.089844 281.023438 C 330.492188 281.621094 329.84375 282.152344 329.144531 282.621094 C 328.445312 283.085938 327.703125 283.484375 326.925781 283.804688 C 326.148438 284.128906 325.34375 284.371094 324.519531 284.535156 C 323.691406 284.699219 322.859375 284.78125 322.015625 284.78125 C 321.171875 284.78125 320.339844 284.699219 319.511719 284.535156 C 318.6875 284.371094 317.882812 284.128906 317.105469 283.804688 C 316.328125 283.484375 315.589844 283.085938 314.886719 282.621094 C 314.1875 282.152344 313.539062 281.621094 312.945312 281.023438 C 312.347656 280.429688 311.816406 279.78125 311.347656 279.078125 C 310.878906 278.378906 310.484375 277.640625 310.164062 276.863281 C 309.839844 276.082031 309.597656 275.28125 309.433594 274.453125 C 309.269531 273.628906 309.1875 272.792969 309.1875 271.953125 C 309.1875 271.109375 309.269531 270.273438 309.433594 269.449219 C 309.597656 268.621094 309.839844 267.820312 310.164062 267.042969 C 310.484375 266.261719 310.878906 265.523438 311.347656 264.824219 C 311.816406 264.121094 312.347656 263.476562 312.945312 262.878906 C 313.539062 262.285156 314.1875 261.75 314.886719 261.285156 C 315.589844 260.816406 316.328125 260.421875 317.105469 260.097656 C 317.882812 259.777344 318.6875 259.53125 319.511719 259.367188 C 320.339844 259.203125 321.171875 259.121094 322.015625 259.121094 C 322.859375 259.121094 323.691406 259.203125 324.519531 259.367188 C 325.34375 259.53125 326.148438 259.777344 326.925781 260.097656 C 327.703125 260.421875 328.445312 260.816406 329.144531 261.285156 C 329.84375 261.75 330.492188 262.285156 331.089844 262.878906 C 331.683594 263.476562 332.214844 264.121094 332.683594 264.824219 C 333.152344 265.523438 333.546875 266.261719 333.871094 267.042969 C 334.191406 267.820312 334.433594 268.621094 334.601562 269.449219 C 334.765625 270.273438 334.847656 271.109375 334.847656 271.953125 Z M 334.847656 271.953125 " fill-opacity="1" fill-rule="nonzero"/><path fill="#e89105" d="M 284.597656 349.132812 C 284.597656 349.761719 284.539062 350.386719 284.414062 351.003906 C 284.292969 351.621094 284.109375 352.21875 283.871094 352.800781 C 283.628906 353.382812 283.332031 353.933594 282.984375 354.457031 C 282.632812 354.980469 282.238281 355.464844 281.792969 355.910156 C 281.347656 356.355469 280.863281 356.753906 280.339844 357.101562 C 279.816406 357.453125 279.265625 357.746094 278.683594 357.988281 C 278.101562 358.226562 277.503906 358.410156 276.886719 358.53125 C 276.269531 358.65625 275.644531 358.71875 275.015625 358.71875 C 274.386719 358.71875 273.761719 358.65625 273.144531 358.53125 C 272.527344 358.410156 271.929688 358.226562 271.347656 357.988281 C 270.765625 357.746094 270.214844 357.453125 269.691406 357.101562 C 269.167969 356.753906 268.683594 356.355469 268.238281 355.910156 C 267.792969 355.464844 267.394531 354.980469 267.046875 354.457031 C 266.695312 353.933594 266.402344 353.382812 266.160156 352.800781 C 265.917969 352.21875 265.738281 351.621094 265.613281 351.003906 C 265.492188 350.386719 265.429688 349.761719 265.429688 349.132812 C 265.429688 348.503906 265.492188 347.878906 265.613281 347.261719 C 265.738281 346.644531 265.917969 346.046875 266.160156 345.464844 C 266.402344 344.882812 266.695312 344.332031 267.046875 343.808594 C 267.394531 343.285156 267.792969 342.800781 268.238281 342.355469 C 268.683594 341.910156 269.167969 341.511719 269.691406 341.164062 C 270.214844 340.8125 270.765625 340.519531 271.347656 340.277344 C 271.929688 340.039062 272.527344 339.855469 273.144531 339.734375 C 273.761719 339.609375 274.386719 339.546875 275.015625 339.546875 C 275.644531 339.546875 276.269531 339.609375 276.886719 339.734375 C 277.503906 339.855469 278.101562 340.039062 278.683594 340.277344 C 279.265625 340.519531 279.816406 340.8125 280.339844 341.164062 C 280.863281 341.511719 281.347656 341.910156 281.792969 342.355469 C 282.238281 342.800781 282.632812 343.285156 282.984375 343.808594 C 283.332031 344.332031 283.628906 344.882812 283.871094 345.464844 C 284.109375 346.046875 284.292969 346.644531 284.414062 347.261719 C 284.539062 347.878906 284.597656 348.503906 284.597656 349.132812 Z M 284.597656 349.132812 " fill-opacity="1" fill-rule="nonzero"/><path fill="#e89105" d="M 294.820312 192.84375 C 294.820312 193.238281 294.78125 193.628906 294.707031 194.015625 C 294.628906 194.402344 294.515625 194.777344 294.363281 195.144531 C 294.210938 195.507812 294.027344 195.855469 293.808594 196.183594 C 293.589844 196.511719 293.339844 196.8125 293.0625 197.09375 C 292.78125 197.371094 292.476562 197.621094 292.148438 197.839844 C 291.824219 198.058594 291.476562 198.246094 291.113281 198.394531 C 290.746094 198.546875 290.371094 198.660156 289.984375 198.738281 C 289.597656 198.8125 289.207031 198.851562 288.8125 198.851562 C 288.417969 198.851562 288.027344 198.8125 287.640625 198.738281 C 287.253906 198.660156 286.878906 198.546875 286.511719 198.394531 C 286.148438 198.246094 285.800781 198.058594 285.472656 197.839844 C 285.144531 197.621094 284.84375 197.371094 284.5625 197.09375 C 284.285156 196.8125 284.035156 196.511719 283.816406 196.183594 C 283.597656 195.855469 283.410156 195.507812 283.261719 195.144531 C 283.109375 194.777344 282.996094 194.402344 282.917969 194.015625 C 282.84375 193.628906 282.804688 193.238281 282.804688 192.84375 C 282.804688 192.449219 282.84375 192.058594 282.917969 191.671875 C 282.996094 191.285156 283.109375 190.910156 283.261719 190.546875 C 283.414062 190.179688 283.597656 189.835938 283.816406 189.507812 C 284.035156 189.179688 284.285156 188.875 284.5625 188.597656 C 284.84375 188.316406 285.144531 188.066406 285.472656 187.847656 C 285.800781 187.628906 286.148438 187.445312 286.511719 187.292969 C 286.878906 187.140625 287.253906 187.027344 287.640625 186.953125 C 288.027344 186.875 288.417969 186.835938 288.8125 186.835938 C 289.207031 186.835938 289.597656 186.875 289.984375 186.953125 C 290.371094 187.027344 290.746094 187.140625 291.113281 187.292969 C 291.476562 187.445312 291.824219 187.628906 292.148438 187.847656 C 292.476562 188.066406 292.78125 188.316406 293.0625 188.597656 C 293.339844 188.875 293.589844 189.179688 293.808594 189.507812 C 294.027344 189.835938 294.210938 190.179688 294.363281 190.546875 C 294.515625 190.910156 294.628906 191.285156 294.707031 191.671875 C 294.78125 192.058594 294.820312 192.449219 294.820312 192.84375 Z M 294.820312 192.84375 " fill-opacity="1" fill-rule="nonzero"/><path fill="#e89105" d="M 331.230469 89.902344 C 331.230469 90.296875 331.195312 90.6875 331.117188 91.074219 C 331.039062 91.460938 330.925781 91.835938 330.773438 92.203125 C 330.625 92.566406 330.4375 92.914062 330.21875 93.242188 C 330 93.570312 329.75 93.871094 329.472656 94.152344 C 329.191406 94.429688 328.890625 94.679688 328.5625 94.898438 C 328.234375 95.117188 327.886719 95.304688 327.523438 95.453125 C 327.160156 95.605469 326.78125 95.71875 326.394531 95.796875 C 326.007812 95.871094 325.617188 95.910156 325.222656 95.910156 C 324.828125 95.910156 324.4375 95.871094 324.050781 95.796875 C 323.664062 95.71875 323.289062 95.605469 322.925781 95.453125 C 322.558594 95.304688 322.214844 95.117188 321.886719 94.898438 C 321.558594 94.679688 321.253906 94.429688 320.976562 94.152344 C 320.695312 93.871094 320.445312 93.570312 320.226562 93.242188 C 320.007812 92.914062 319.824219 92.566406 319.671875 92.203125 C 319.523438 91.835938 319.40625 91.460938 319.332031 91.074219 C 319.253906 90.6875 319.214844 90.296875 319.214844 89.902344 C 319.214844 89.507812 319.253906 89.117188 319.332031 88.730469 C 319.40625 88.34375 319.523438 87.96875 319.671875 87.605469 C 319.824219 87.238281 320.007812 86.894531 320.226562 86.566406 C 320.445312 86.238281 320.695312 85.933594 320.976562 85.65625 C 321.253906 85.375 321.558594 85.125 321.886719 84.90625 C 322.214844 84.6875 322.558594 84.503906 322.925781 84.351562 C 323.289062 84.199219 323.664062 84.085938 324.050781 84.011719 C 324.4375 83.933594 324.828125 83.894531 325.222656 83.894531 C 325.617188 83.894531 326.007812 83.933594 326.394531 84.011719 C 326.78125 84.085938 327.160156 84.199219 327.523438 84.351562 C 327.886719 84.503906 328.234375 84.6875 328.5625 84.90625 C 328.890625 85.125 329.191406 85.375 329.472656 85.65625 C 329.75 85.933594 330 86.238281 330.21875 86.566406 C 330.4375 86.894531 330.625 87.238281 330.773438 87.605469 C 330.925781 87.96875 331.039062 88.34375 331.117188 88.730469 C 331.195312 89.117188 331.230469 89.507812 331.230469 89.902344 Z M 331.230469 89.902344 " fill-opacity="1" fill-rule="nonzero"/><path fill="#e89105" d="M 350.0625 40.285156 C 350.0625 40.679688 350.023438 41.070312 349.949219 41.457031 C 349.871094 41.84375 349.757812 42.21875 349.605469 42.585938 C 349.453125 42.949219 349.269531 43.296875 349.050781 43.625 C 348.832031 43.953125 348.582031 44.253906 348.304688 44.535156 C 348.023438 44.8125 347.71875 45.0625 347.394531 45.28125 C 347.066406 45.5 346.71875 45.683594 346.355469 45.835938 C 345.988281 45.988281 345.613281 46.101562 345.226562 46.179688 C 344.839844 46.253906 344.449219 46.292969 344.054688 46.292969 C 343.660156 46.292969 343.269531 46.253906 342.882812 46.179688 C 342.496094 46.101562 342.121094 45.988281 341.753906 45.835938 C 341.390625 45.683594 341.042969 45.5 340.714844 45.28125 C 340.386719 45.0625 340.085938 44.8125 339.804688 44.535156 C 339.527344 44.253906 339.277344 43.953125 339.058594 43.625 C 338.839844 43.296875 338.65625 42.949219 338.503906 42.585938 C 338.351562 42.21875 338.238281 41.84375 338.160156 41.457031 C 338.085938 41.070312 338.046875 40.679688 338.046875 40.285156 C 338.046875 39.890625 338.085938 39.5 338.160156 39.113281 C 338.238281 38.726562 338.351562 38.351562 338.503906 37.984375 C 338.65625 37.621094 338.839844 37.273438 339.058594 36.945312 C 339.277344 36.621094 339.527344 36.316406 339.804688 36.035156 C 340.085938 35.757812 340.386719 35.507812 340.714844 35.289062 C 341.042969 35.070312 341.390625 34.886719 341.753906 34.734375 C 342.121094 34.582031 342.496094 34.46875 342.882812 34.390625 C 343.269531 34.316406 343.660156 34.277344 344.054688 34.277344 C 344.449219 34.277344 344.839844 34.316406 345.226562 34.390625 C 345.613281 34.46875 345.988281 34.582031 346.355469 34.734375 C 346.71875 34.886719 347.066406 35.070312 347.394531 35.289062 C 347.71875 35.507812 348.023438 35.757812 348.304688 36.035156 C 348.582031 36.316406 348.832031 36.621094 349.050781 36.945312 C 349.269531 37.273438 349.453125 37.621094 349.605469 37.984375 C 349.757812 38.351562 349.871094 38.726562 349.949219 39.113281 C 350.023438 39.5 350.0625 39.890625 350.0625 40.285156 Z M 350.0625 40.285156 " fill-opacity="1" fill-rule="nonzero"/><path fill="#e89105" d="M 122.546875 337.402344 L 125.089844 336.851562 L 135.222656 383.554688 L 132.679688 384.109375 Z M 122.546875 337.402344 " fill-opacity="1" fill-rule="nonzero"/><path fill="#e89105" d="M 231.113281 293.824219 L 233.179688 292.246094 L 276.039062 348.335938 L 273.972656 349.917969 Z M 231.113281 293.824219 " fill-opacity="1" fill-rule="nonzero"/><path fill="#e89105" d="M 231.878906 291.773438 L 323.441406 271.675781 L 324 274.214844 L 232.4375 294.316406 Z M 231.878906 291.773438 " fill-opacity="1" fill-rule="nonzero"/><path fill="#e89105" d="M 273.917969 348.425781 L 322.625 272.25 L 324.816406 273.652344 L 276.109375 349.828125 Z M 273.917969 348.425781 " fill-opacity="1" fill-rule="nonzero"/><path fill="#e89105" d="M 273.734375 349.265625 L 276.328125 349.070312 L 290.058594 532.191406 L 287.464844 532.386719 Z M 273.734375 349.265625 " fill-opacity="1" fill-rule="nonzero"/><path fill="#e89105" d="M 202.445312 416.433594 L 230.890625 292.71875 L 233.425781 293.300781 L 204.980469 417.015625 Z M 202.445312 416.433594 " fill-opacity="1" fill-rule="nonzero"/><path fill="#e89105" d="M 322.886719 273.941406 L 324.542969 271.933594 L 409.65625 342.101562 L 408 344.109375 Z M 322.886719 273.941406 " fill-opacity="1" fill-rule="nonzero"/><path fill="#e89105" d="M 323.429688 271.683594 L 451.464844 244.054688 L 452.011719 246.597656 L 323.976562 274.226562 Z M 323.429688 271.683594 " fill-opacity="1" fill-rule="nonzero"/><path fill="#e89105" d="M 320.78125 271.589844 L 397.082031 36.074219 L 399.558594 36.875 L 323.257812 272.390625 Z M 320.78125 271.589844 " fill-opacity="1" fill-rule="nonzero"/><path fill="#e89105" d="M 360.140625 155.511719 L 360.222656 152.910156 L 446.523438 155.640625 L 446.441406 158.238281 Z M 360.140625 155.511719 " fill-opacity="1" fill-rule="nonzero"/><path fill="#e89105" d="M 359.246094 155.132812 L 361.082031 153.289062 L 453.597656 245.203125 L 451.761719 247.046875 Z M 359.246094 155.132812 " fill-opacity="1" fill-rule="nonzero"/><path fill="#e89105" d="M 219.929688 76.257812 L 221.210938 73.996094 L 360.796875 153.097656 L 359.515625 155.359375 Z M 219.929688 76.257812 " fill-opacity="1" fill-rule="nonzero"/><path fill="#e89105" d="M 217.3125 231.171875 L 359.550781 153.03125 L 360.804688 155.3125 L 218.5625 233.453125 Z M 217.3125 231.171875 " fill-opacity="1" fill-rule="nonzero"/><path fill="#e89105" d="M 287.621094 193.925781 L 290.003906 192.878906 L 324.914062 272.4375 L 322.53125 273.484375 Z M 287.621094 193.925781 " fill-opacity="1" fill-rule="nonzero"/><path fill="#e89105" d="M 86.867188 282.066406 L 87.105469 279.476562 L 237.207031 293.359375 L 236.964844 295.953125 Z M 86.867188 282.066406 " fill-opacity="1" fill-rule="nonzero"/><path fill="#e89105" d="M 122.34375 337.003906 L 231.417969 293.007812 L 232.390625 295.421875 L 123.316406 339.417969 Z M 122.34375 337.003906 " fill-opacity="1" fill-rule="nonzero"/><path fill="#e89105" d="M 230.84375 292.964844 L 234.816406 222.269531 L 237.414062 222.417969 L 233.441406 293.109375 Z M 230.84375 292.964844 " fill-opacity="1" fill-rule="nonzero"/><path fill="#e89105" d="M 324.074219 90.53125 L 326.359375 89.289062 L 361.304688 153.582031 L 359.015625 154.824219 Z M 324.074219 90.53125 " fill-opacity="1" fill-rule="nonzero"/><path fill="#e89105" d="M 404.851562 -72.683594 L 402.542969 -74.050781 C 402.128906 -74.296875 392.636719 -79.628906 378.601562 -64.980469 C 375.722656 -69.238281 370.914062 -71.847656 365.601562 -71.847656 C 356.929688 -71.847656 349.878906 -64.796875 349.878906 -56.125 C 349.878906 -48.804688 354.914062 -42.636719 361.703125 -40.894531 C 351.710938 -26.375 342.71875 -23.496094 336.820312 -23.734375 C 329.320312 -24.035156 323.886719 -29.4375 321.300781 -34.386719 C 318.929688 -38.929688 318.433594 -46.210938 319.851562 -55.542969 C 320.273438 -55.511719 320.695312 -55.488281 321.109375 -55.488281 C 329.78125 -55.488281 336.832031 -62.539062 336.832031 -71.210938 C 336.832031 -79.882812 329.78125 -86.933594 321.109375 -86.933594 C 312.4375 -86.933594 305.386719 -79.882812 305.386719 -71.210938 C 305.386719 -66.53125 307.414062 -62.203125 310.914062 -59.242188 C 306.191406 -52.847656 301.082031 -48.199219 295.695312 -45.414062 C 292.1875 -43.59375 282.972656 -39.84375 273.210938 -44.246094 C 264.847656 -48.015625 258.25 -56.96875 253.9375 -70.308594 C 256.03125 -69.410156 258.308594 -68.941406 260.65625 -68.941406 C 270.082031 -68.941406 277.746094 -76.605469 277.746094 -86.03125 C 277.746094 -94.371094 271.738281 -101.332031 263.828125 -102.828125 C 265.390625 -107.476562 266.183594 -112.234375 266.183594 -117.007812 C 266.183594 -126.292969 260.472656 -133.453125 255.441406 -139.777344 C 251.671875 -144.503906 245.839844 -151.011719 245.839844 -155.152344 C 245.839844 -151.011719 240.007812 -144.503906 236.242188 -139.777344 C 231.207031 -133.453125 225.496094 -126.292969 225.496094 -117.007812 C 225.496094 -112.234375 226.289062 -107.476562 227.851562 -102.828125 C 219.941406 -101.339844 213.933594 -94.371094 213.933594 -86.03125 C 213.933594 -76.605469 221.597656 -68.941406 231.023438 -68.941406 C 233.378906 -68.941406 235.648438 -69.410156 237.746094 -70.308594 C 233.441406 -56.96875 226.832031 -48.015625 218.46875 -44.246094 C 208.707031 -39.851562 199.492188 -43.601562 195.984375 -45.414062 C 190.605469 -48.199219 185.496094 -52.847656 180.777344 -59.242188 C 184.273438 -62.203125 186.300781 -66.53125 186.300781 -71.210938 C 186.300781 -79.882812 179.25 -86.933594 170.578125 -86.933594 C 161.90625 -86.933594 154.855469 -79.882812 154.855469 -71.210938 C 154.855469 -62.539062 161.90625 -55.488281 170.578125 -55.488281 C 171 -55.488281 171.421875 -55.503906 171.835938 -55.542969 C 173.253906 -46.21875 172.765625 -38.929688 170.386719 -34.386719 C 167.800781 -29.4375 162.367188 -24.042969 154.871094 -23.734375 C 148.960938 -23.503906 139.976562 -26.382812 129.984375 -40.894531 C 136.773438 -42.636719 141.808594 -48.804688 141.808594 -56.125 C 141.808594 -64.796875 134.757812 -71.847656 126.085938 -71.847656 C 120.777344 -71.847656 115.972656 -69.238281 113.085938 -64.980469 C 99.050781 -79.628906 89.558594 -74.296875 89.144531 -74.050781 L 86.835938 -72.683594 L 88.554688 -70.628906 C 111.320312 -43.410156 129.800781 -7.167969 143.488281 37.109375 L 147.839844 35.765625 C 134.457031 -7.527344 116.5 -43.296875 94.457031 -70.621094 C 97.839844 -70.558594 103.894531 -68.78125 111.851562 -59.5625 L 114.3125 -56.714844 L 115.695312 -60.222656 C 117.390625 -64.519531 121.464844 -67.296875 126.085938 -67.296875 C 132.238281 -67.296875 137.25 -62.289062 137.25 -56.132812 C 137.25 -49.980469 132.238281 -44.96875 126.085938 -44.96875 L 121.957031 -44.96875 L 124.152344 -41.476562 C 136.09375 -22.507812 147.535156 -18.894531 155.046875 -19.191406 C 162.941406 -19.507812 170.363281 -24.527344 174.414062 -32.285156 C 177.4375 -38.070312 177.980469 -46.726562 176.039062 -58.011719 C 181.457031 -50.300781 187.460938 -44.707031 193.882812 -41.378906 C 202.546875 -36.886719 212.183594 -36.425781 220.332031 -40.09375 C 231.34375 -45.058594 239.257812 -56.832031 243.835938 -75.085938 L 243.953125 -75.617188 L 243.0625 -80.4375 L 239.984375 -77.28125 C 237.605469 -74.839844 234.414062 -73.492188 231.007812 -73.492188 C 224.09375 -73.492188 218.476562 -79.117188 218.476562 -86.03125 C 218.476562 -92.9375 224.09375 -98.5625 231.007812 -98.5625 L 234.398438 -98.5625 L 233.117188 -101.699219 C 231.074219 -106.703125 230.039062 -111.851562 230.039062 -117 C 230.039062 -124.691406 234.996094 -130.914062 239.792969 -136.929688 C 242.058594 -139.777344 244.257812 -142.539062 245.824219 -145.363281 C 247.390625 -142.539062 249.59375 -139.777344 251.855469 -136.929688 C 256.652344 -130.914062 261.609375 -124.691406 261.609375 -117 C 261.609375 -111.84375 260.574219 -106.695312 258.53125 -101.699219 L 257.25 -98.5625 L 260.640625 -98.5625 C 267.546875 -98.5625 273.171875 -92.9375 273.171875 -86.03125 C 273.171875 -79.117188 267.546875 -73.492188 260.632812 -73.492188 C 257.226562 -73.492188 254.042969 -74.835938 251.65625 -77.28125 L 248.617188 -80.335938 L 247.683594 -75.578125 L 247.804688 -75.085938 C 252.386719 -56.832031 260.296875 -45.058594 271.308594 -40.09375 C 279.457031 -36.421875 289.105469 -36.886719 297.757812 -41.378906 C 304.183594 -44.699219 310.183594 -50.300781 315.601562 -58.011719 C 313.660156 -46.734375 314.203125 -38.078125 317.226562 -32.285156 C 321.28125 -24.527344 328.699219 -19.507812 336.597656 -19.191406 C 344.109375 -18.878906 355.558594 -22.515625 367.488281 -41.476562 L 369.683594 -44.96875 L 365.554688 -44.96875 C 359.402344 -44.96875 354.390625 -49.980469 354.390625 -56.132812 C 354.390625 -62.289062 359.402344 -67.296875 365.554688 -67.296875 C 370.175781 -67.296875 374.25 -64.519531 375.945312 -60.222656 L 377.328125 -56.722656 L 379.789062 -59.570312 C 387.761719 -68.800781 393.824219 -70.574219 397.195312 -70.636719 C 375.140625 -43.304688 357.183594 -7.535156 343.800781 35.757812 L 341.621094 42.808594 L 366.515625 22.996094 L 397.246094 38.464844 L 399.296875 34.398438 L 365.953125 17.617188 L 350.410156 29.988281 C 363.84375 -11.066406 381.546875 -44.890625 403.078125 -70.636719 Z M 176.433594 -61.6875 L 174.929688 -60.769531 L 173.203125 -60.355469 C 172.34375 -60.148438 171.46875 -60.046875 170.59375 -60.046875 C 164.4375 -60.046875 159.425781 -65.058594 159.425781 -71.210938 C 159.425781 -77.367188 164.4375 -82.378906 170.59375 -82.378906 C 176.746094 -82.378906 181.757812 -77.367188 181.757812 -71.210938 C 181.757812 -67.296875 179.769531 -63.738281 176.433594 -61.6875 Z M 316.773438 -60.761719 L 315.269531 -61.6875 C 311.933594 -63.738281 309.945312 -67.296875 309.945312 -71.203125 C 309.945312 -77.359375 314.957031 -82.371094 321.109375 -82.371094 C 327.265625 -82.371094 332.277344 -77.359375 332.277344 -71.203125 C 332.277344 -65.050781 327.265625 -60.039062 321.109375 -60.039062 C 320.234375 -60.039062 319.359375 -60.148438 318.5 -60.347656 Z M 316.773438 -60.761719 " fill-opacity="1" fill-rule="nonzero"/><path fill="#e89105" d="M 279.042969 108.671875 L 324.703125 88.726562 L 325.742188 91.109375 L 280.082031 111.054688 Z M 279.042969 108.671875 " fill-opacity="1" fill-rule="nonzero"/><path fill="#e89105" d="M 136.582031 224.851562 L 147.371094 239.882812 L 109.164062 261.992188 L 86.890625 254.203125 L 63.628906 246.078125 L 37.839844 211.976562 L 47.316406 204.230469 L 81.171875 235.832031 L 135.863281 236.835938 Z M 136.582031 224.851562 " fill-opacity="1" fill-rule="nonzero"/><path fill="#e89105" d="M 119.347656 278.113281 L 114.246094 288.449219 L 73.320312 292.0625 L 55.742188 264.882812 L 62.441406 251.855469 C 62.449219 251.847656 62.449219 251.839844 62.449219 251.839844 L 91.402344 273.480469 L 105.257812 271.605469 Z M 119.347656 278.113281 " fill-opacity="1" fill-rule="nonzero"/><path fill="#ffe18d" d="M 109.164062 261.992188 L 135.863281 236.835938 L 133.320312 231.863281 L 87.542969 217.46875 L 115.574219 212.6875 L 115.574219 208.9375 L 70.835938 198.851562 L 114.199219 190.488281 L 114.199219 177.042969 L 128.066406 197.847656 L 89.382812 199.304688 L 128.066406 206.472656 L 133.929688 217.246094 L 101.207031 219.011719 L 136.582031 224.851562 L 147.371094 239.882812 Z M 109.164062 261.992188 " fill-opacity="1" fill-rule="nonzero"/><path fill="#ffe18d" d="M 105.257812 289.246094 L 73.320312 292.0625 L 55.742188 264.882812 L 62.449219 251.839844 L 81.171875 280.953125 Z M 105.257812 289.246094 " fill-opacity="1" fill-rule="nonzero"/><path fill="#ffe18d" d="M 105.257812 111.027344 L 107.285156 129.820312 L 77.503906 179.578125 L 26.246094 180.695312 L 100.695312 121.578125 L 100.695312 106.976562 L 174.9375 44.390625 Z M 105.257812 111.027344 " fill-opacity="1" fill-rule="nonzero"/><path fill="#ffe18d" d="M 299.761719 11.125 L 273.824219 46.292969 L 276.519531 77.792969 L 245.855469 49.691406 L 300.8125 -0.738281 L 324.960938 25.015625 Z M 299.761719 11.125 " fill-opacity="1" fill-rule="nonzero"/><path fill="#e89105" d="M 288.820312 191.648438 L 238.273438 159.164062 L 236.085938 223.722656 L 236.054688 223.800781 L 189.738281 282.148438 L 198.863281 228.871094 L 153.242188 250.035156 L 154.339844 202.957031 L 212 176.316406 L 136.09375 187.265625 L 124.414062 174.496094 L 120.398438 148.953125 L 144.949219 168.574219 L 162.457031 136.027344 L 164.613281 136.027344 L 190.542969 115.339844 L 166.21875 111.84375 L 144.949219 97.023438 L 211.0625 86.65625 L 208.722656 60.375 L 190.597656 29.296875 L 190.75 29.152344 L 205.316406 36.433594 L 232.15625 23.320312 L 213.457031 59.898438 L 247.765625 71.945312 L 224.046875 74.132812 L 281.707031 109.902344 L 242.65625 108.804688 L 272.582031 145.660156 L 237.542969 130.703125 Z M 288.820312 191.648438 " fill-opacity="1" fill-rule="nonzero"/><path fill="#ffe18d" d="M 238.273438 159.164062 L 226.679688 222.273438 L 189.738281 282.148438 L 198.863281 228.871094 L 153.242188 250.035156 L 154.339844 202.957031 L 168.964844 226.140625 L 205.308594 200.148438 L 212.296875 231.304688 Z M 238.273438 159.164062 " fill-opacity="1" fill-rule="nonzero"/><path fill="#ffe18d" d="M 164.613281 136.027344 L 190.542969 115.339844 L 148.007812 109.226562 L 123.828125 133.804688 L 144.949219 97.023438 L 211.0625 110.246094 Z M 164.613281 136.027344 " fill-opacity="1" fill-rule="nonzero"/><path fill="#ffe18d" d="M 206.757812 -5.417969 C 206.757812 -4.828125 206.699219 -4.246094 206.585938 -3.667969 C 206.472656 -3.089844 206.300781 -2.527344 206.074219 -1.984375 C 205.847656 -1.4375 205.574219 -0.921875 205.246094 -0.429688 C 204.917969 0.0585938 204.546875 0.511719 204.128906 0.929688 C 203.710938 1.347656 203.257812 1.71875 202.769531 2.046875 C 202.277344 2.375 201.761719 2.652344 201.214844 2.875 C 200.671875 3.101562 200.109375 3.273438 199.53125 3.386719 C 198.953125 3.503906 198.371094 3.558594 197.78125 3.558594 C 197.191406 3.558594 196.605469 3.503906 196.027344 3.386719 C 195.449219 3.273438 194.890625 3.101562 194.34375 2.875 C 193.800781 2.652344 193.28125 2.375 192.792969 2.046875 C 192.300781 1.71875 191.847656 1.347656 191.433594 0.929688 C 191.015625 0.511719 190.644531 0.0585938 190.316406 -0.429688 C 189.988281 -0.921875 189.710938 -1.4375 189.484375 -1.984375 C 189.261719 -2.527344 189.089844 -3.089844 188.972656 -3.667969 C 188.859375 -4.246094 188.800781 -4.828125 188.800781 -5.417969 C 188.800781 -6.007812 188.859375 -6.59375 188.976562 -7.171875 C 189.089844 -7.75 189.261719 -8.308594 189.484375 -8.855469 C 189.710938 -9.398438 189.988281 -9.917969 190.316406 -10.40625 C 190.644531 -10.898438 191.015625 -11.351562 191.433594 -11.765625 C 191.847656 -12.183594 192.300781 -12.554688 192.792969 -12.882812 C 193.28125 -13.210938 193.800781 -13.488281 194.34375 -13.714844 C 194.890625 -13.9375 195.449219 -14.109375 196.027344 -14.222656 C 196.605469 -14.339844 197.191406 -14.398438 197.78125 -14.398438 C 198.371094 -14.398438 198.953125 -14.339844 199.53125 -14.222656 C 200.109375 -14.109375 200.671875 -13.9375 201.214844 -13.714844 C 201.761719 -13.488281 202.277344 -13.210938 202.769531 -12.882812 C 203.257812 -12.554688 203.710938 -12.183594 204.128906 -11.765625 C 204.546875 -11.351562 204.917969 -10.898438 205.246094 -10.40625 C 205.574219 -9.917969 205.847656 -9.398438 206.074219 -8.855469 C 206.300781 -8.308594 206.472656 -7.75 206.585938 -7.171875 C 206.699219 -6.59375 206.757812 -6.007812 206.757812 -5.417969 Z M 206.757812 -5.417969 " fill-opacity="1" fill-rule="nonzero"/><path fill="#ffe18d" d="M 255.53125 10.726562 C 255.53125 11.042969 255.5 11.359375 255.4375 11.671875 C 255.375 11.984375 255.285156 12.285156 255.164062 12.578125 C 255.042969 12.875 254.890625 13.152344 254.714844 13.417969 C 254.539062 13.679688 254.339844 13.925781 254.113281 14.152344 C 253.890625 14.375 253.644531 14.574219 253.378906 14.753906 C 253.117188 14.929688 252.835938 15.078125 252.542969 15.199219 C 252.25 15.320312 251.945312 15.414062 251.632812 15.476562 C 251.324219 15.539062 251.007812 15.570312 250.691406 15.570312 C 250.371094 15.570312 250.058594 15.539062 249.746094 15.476562 C 249.433594 15.414062 249.128906 15.320312 248.835938 15.199219 C 248.542969 15.078125 248.265625 14.929688 248 14.753906 C 247.734375 14.574219 247.492188 14.375 247.265625 14.152344 C 247.042969 13.925781 246.839844 13.679688 246.664062 13.417969 C 246.488281 13.152344 246.339844 12.875 246.214844 12.578125 C 246.09375 12.285156 246.003906 11.984375 245.941406 11.671875 C 245.878906 11.359375 245.847656 11.042969 245.847656 10.726562 C 245.847656 10.410156 245.878906 10.09375 245.941406 9.78125 C 246.003906 9.46875 246.09375 9.167969 246.214844 8.875 C 246.339844 8.578125 246.488281 8.300781 246.664062 8.035156 C 246.839844 7.773438 247.042969 7.527344 247.265625 7.304688 C 247.492188 7.078125 247.734375 6.878906 248 6.699219 C 248.265625 6.523438 248.542969 6.375 248.835938 6.253906 C 249.128906 6.132812 249.433594 6.039062 249.746094 5.976562 C 250.058594 5.914062 250.371094 5.882812 250.691406 5.882812 C 251.007812 5.882812 251.324219 5.914062 251.632812 5.976562 C 251.945312 6.039062 252.25 6.132812 252.542969 6.253906 C 252.835938 6.375 253.117188 6.523438 253.378906 6.699219 C 253.644531 6.878906 253.890625 7.078125 254.113281 7.304688 C 254.339844 7.527344 254.539062 7.773438 254.714844 8.035156 C 254.890625 8.300781 255.042969 8.578125 255.164062 8.875 C 255.285156 9.167969 255.375 9.46875 255.4375 9.78125 C 255.5 10.09375 255.53125 10.410156 255.53125 10.726562 Z M 255.53125 10.726562 " fill-opacity="1" fill-rule="nonzero"/><path fill="#ffe18d" d="M 357.316406 339.394531 C 357.316406 339.722656 357.28125 340.046875 357.21875 340.371094 C 357.15625 340.691406 357.058594 341.003906 356.933594 341.308594 C 356.808594 341.609375 356.65625 341.898438 356.472656 342.171875 C 356.289062 342.441406 356.082031 342.695312 355.851562 342.925781 C 355.621094 343.160156 355.367188 343.367188 355.09375 343.546875 C 354.820312 343.730469 354.535156 343.882812 354.230469 344.011719 C 353.925781 344.136719 353.617188 344.230469 353.292969 344.292969 C 352.972656 344.359375 352.648438 344.390625 352.320312 344.390625 C 351.992188 344.390625 351.667969 344.359375 351.34375 344.292969 C 351.023438 344.230469 350.710938 344.136719 350.40625 344.011719 C 350.105469 343.882812 349.816406 343.730469 349.542969 343.546875 C 349.269531 343.367188 349.019531 343.160156 348.785156 342.925781 C 348.554688 342.695312 348.347656 342.441406 348.164062 342.171875 C 347.984375 341.898438 347.828125 341.609375 347.703125 341.308594 C 347.578125 341.003906 347.484375 340.691406 347.417969 340.371094 C 347.355469 340.046875 347.324219 339.722656 347.324219 339.394531 C 347.324219 339.066406 347.355469 338.742188 347.417969 338.421875 C 347.484375 338.097656 347.578125 337.785156 347.703125 337.484375 C 347.828125 337.179688 347.984375 336.890625 348.164062 336.621094 C 348.347656 336.347656 348.554688 336.09375 348.785156 335.863281 C 349.019531 335.628906 349.269531 335.421875 349.542969 335.242188 C 349.816406 335.058594 350.105469 334.90625 350.40625 334.78125 C 350.710938 334.652344 351.023438 334.558594 351.34375 334.496094 C 351.667969 334.429688 351.992188 334.398438 352.320312 334.398438 C 352.648438 334.398438 352.972656 334.429688 353.292969 334.496094 C 353.617188 334.558594 353.925781 334.652344 354.230469 334.78125 C 354.535156 334.90625 354.820312 335.058594 355.09375 335.242188 C 355.367188 335.421875 355.621094 335.628906 355.851562 335.863281 C 356.082031 336.09375 356.289062 336.347656 356.472656 336.621094 C 356.65625 336.890625 356.808594 337.179688 356.933594 337.484375 C 357.058594 337.785156 357.15625 338.097656 357.21875 338.421875 C 357.28125 338.742188 357.316406 339.066406 357.316406 339.394531 Z M 357.316406 339.394531 " fill-opacity="1" fill-rule="nonzero"/><path fill="#ffe18d" d="M 306.429688 153.640625 C 306.429688 154.132812 306.335938 154.605469 306.148438 155.058594 C 305.960938 155.511719 305.691406 155.914062 305.34375 156.261719 C 304.996094 156.609375 304.597656 156.875 304.144531 157.0625 C 303.6875 157.253906 303.214844 157.347656 302.722656 157.347656 C 302.234375 157.347656 301.761719 157.253906 301.304688 157.0625 C 300.851562 156.875 300.453125 156.609375 300.105469 156.261719 C 299.757812 155.914062 299.488281 155.511719 299.300781 155.058594 C 299.113281 154.605469 299.019531 154.132812 299.019531 153.640625 C 299.019531 153.148438 299.113281 152.675781 299.300781 152.222656 C 299.488281 151.765625 299.757812 151.367188 300.105469 151.019531 C 300.453125 150.671875 300.851562 150.402344 301.304688 150.214844 C 301.761719 150.027344 302.234375 149.933594 302.722656 149.933594 C 303.214844 149.933594 303.6875 150.027344 304.144531 150.214844 C 304.597656 150.402344 304.996094 150.671875 305.34375 151.019531 C 305.691406 151.367188 305.960938 151.765625 306.148438 152.222656 C 306.335938 152.675781 306.429688 153.148438 306.429688 153.640625 Z M 306.429688 153.640625 " fill-opacity="1" fill-rule="nonzero"/><path fill="#ffe18d" d="M 302.722656 79.113281 C 302.722656 79.429688 302.695312 79.742188 302.632812 80.050781 C 302.570312 80.359375 302.480469 80.660156 302.359375 80.949219 C 302.238281 81.238281 302.089844 81.515625 301.917969 81.777344 C 301.742188 82.039062 301.542969 82.28125 301.320312 82.503906 C 301.097656 82.726562 300.855469 82.925781 300.59375 83.101562 C 300.332031 83.277344 300.054688 83.425781 299.765625 83.542969 C 299.472656 83.664062 299.171875 83.757812 298.863281 83.816406 C 298.554688 83.878906 298.242188 83.910156 297.929688 83.910156 C 297.613281 83.910156 297.300781 83.878906 296.992188 83.816406 C 296.683594 83.757812 296.382812 83.664062 296.09375 83.542969 C 295.800781 83.425781 295.527344 83.277344 295.265625 83.101562 C 295.003906 82.925781 294.761719 82.726562 294.539062 82.503906 C 294.316406 82.28125 294.117188 82.039062 293.941406 81.777344 C 293.765625 81.515625 293.617188 81.238281 293.496094 80.949219 C 293.378906 80.660156 293.285156 80.359375 293.226562 80.050781 C 293.164062 79.742188 293.132812 79.429688 293.132812 79.113281 C 293.132812 78.800781 293.164062 78.488281 293.226562 78.179688 C 293.285156 77.871094 293.378906 77.570312 293.496094 77.277344 C 293.617188 76.988281 293.765625 76.710938 293.941406 76.449219 C 294.117188 76.1875 294.316406 75.945312 294.539062 75.722656 C 294.761719 75.5 295.003906 75.300781 295.265625 75.125 C 295.527344 74.949219 295.800781 74.804688 296.09375 74.683594 C 296.382812 74.5625 296.683594 74.472656 296.992188 74.410156 C 297.300781 74.347656 297.613281 74.316406 297.929688 74.316406 C 298.242188 74.316406 298.554688 74.347656 298.863281 74.410156 C 299.171875 74.472656 299.472656 74.5625 299.765625 74.683594 C 300.054688 74.804688 300.332031 74.949219 300.59375 75.125 C 300.855469 75.300781 301.097656 75.5 301.320312 75.722656 C 301.542969 75.945312 301.742188 76.1875 301.917969 76.449219 C 302.089844 76.710938 302.238281 76.988281 302.359375 77.277344 C 302.480469 77.570312 302.570312 77.871094 302.632812 78.179688 C 302.695312 78.488281 302.722656 78.800781 302.722656 79.113281 Z M 302.722656 79.113281 " fill-opacity="1" fill-rule="nonzero"/><path fill="#ffe18d" d="M 285.28125 265.875 C 285.28125 266.410156 285.230469 266.9375 285.125 267.464844 C 285.019531 267.988281 284.867188 268.5 284.660156 268.992188 C 284.457031 269.488281 284.207031 269.957031 283.910156 270.402344 C 283.613281 270.847656 283.273438 271.257812 282.894531 271.636719 C 282.515625 272.015625 282.105469 272.351562 281.660156 272.648438 C 281.214844 272.949219 280.746094 273.199219 280.25 273.402344 C 279.757812 273.609375 279.246094 273.761719 278.722656 273.867188 C 278.199219 273.972656 277.667969 274.023438 277.132812 274.023438 C 276.597656 274.023438 276.066406 273.972656 275.542969 273.867188 C 275.019531 273.761719 274.507812 273.609375 274.015625 273.402344 C 273.519531 273.199219 273.050781 272.949219 272.605469 272.648438 C 272.160156 272.351562 271.75 272.015625 271.371094 271.636719 C 270.992188 271.257812 270.65625 270.847656 270.355469 270.402344 C 270.058594 269.957031 269.808594 269.488281 269.605469 268.992188 C 269.398438 268.5 269.246094 267.988281 269.140625 267.464844 C 269.035156 266.9375 268.984375 266.410156 268.984375 265.875 C 268.984375 265.339844 269.035156 264.808594 269.140625 264.285156 C 269.246094 263.757812 269.398438 263.25 269.605469 262.753906 C 269.808594 262.261719 270.058594 261.792969 270.355469 261.347656 C 270.65625 260.902344 270.992188 260.488281 271.371094 260.113281 C 271.75 259.734375 272.160156 259.394531 272.605469 259.097656 C 273.050781 258.800781 273.519531 258.550781 274.015625 258.34375 C 274.507812 258.140625 275.019531 257.984375 275.542969 257.882812 C 276.066406 257.777344 276.597656 257.726562 277.132812 257.726562 C 277.667969 257.726562 278.199219 257.777344 278.722656 257.882812 C 279.246094 257.984375 279.757812 258.140625 280.25 258.34375 C 280.746094 258.550781 281.214844 258.800781 281.660156 259.097656 C 282.105469 259.394531 282.515625 259.734375 282.894531 260.113281 C 283.273438 260.488281 283.613281 260.902344 283.910156 261.347656 C 284.207031 261.792969 284.457031 262.261719 284.660156 262.753906 C 284.867188 263.25 285.019531 263.757812 285.125 264.285156 C 285.230469 264.808594 285.28125 265.339844 285.28125 265.875 Z M 285.28125 265.875 " fill-opacity="1" fill-rule="nonzero"/><path fill="#ffe18d" d="M 86.890625 254.203125 L 63.628906 246.078125 L 37.839844 211.976562 L 47.316406 204.230469 L 69.660156 243.503906 Z M 86.890625 254.203125 " fill-opacity="1" fill-rule="nonzero"/></svg>